2014031_C5_05_grf
version=1
nRows=37
nColumns=19
inDegrees=no
endheader
time	ground_force_1_vx	ground_force_1_vy	ground_force_1_vz	ground_force_1_px	ground_force_1_py	ground_force_1_pz	ground_force_1_mx	ground_force_1_my	ground_force_1_mz	ground_force_2_vx	ground_force_2_vy	ground_force_2_vz	ground_force_2_px	ground_force_2_py	ground_force_2_pz	ground_force_2_mx	ground_force_2_my	ground_force_2_mz
      0.76500000	      0.00000000	      0.00000000	      0.00000000	      0.00000000	      0.00000000	      0.00000000	      0.00000000	      0.00000000	      0.00000000	    -25.08316189	    457.00170100	    -26.75480582	      0.88186927	     -0.00200000	     -0.14315817	      0.00000000	      1.87768057	      0.00000000
      0.76600000	      0.00000000	      0.00000000	      0.00000000	      0.00000000	      0.00000000	      0.00000000	      0.00000000	      0.00000000	      0.00000000	    -24.62649532	    454.77429032	    -26.57610923	      0.88244073	     -0.00200000	     -0.14301335	      0.00000000	      1.87596729	      0.00000000
      0.76700000	      0.00000000	      0.00000000	      0.00000000	      0.00000000	      0.00000000	      0.00000000	      0.00000000	      0.00000000	      0.00000000	    -24.18168448	    452.61320472	    -26.40383095	      0.88301478	     -0.00200000	     -0.14286914	      0.00000000	      1.87378963	      0.00000000
      0.76800000	      0.00000000	      0.00000000	      0.00000000	      0.00000000	      0.00000000	      0.00000000	      0.00000000	      0.00000000	      0.00000000	    -23.74613844	    450.50531626	    -26.23686567	      0.88359071	     -0.00200000	     -0.14272542	      0.00000000	      1.87124713	      0.00000000
      0.76900000	      0.00000000	      0.00000000	      0.00000000	      0.00000000	      0.00000000	      0.00000000	      0.00000000	      0.00000000	      0.00000000	    -23.32187071	    448.46403599	    -26.07673779	      0.88416876	     -0.00200000	     -0.14258230	      0.00000000	      1.86825841	      0.00000000
      0.77000000	      0.00000000	      0.00000000	      0.00000000	      0.00000000	      0.00000000	      0.00000000	      0.00000000	      0.00000000	      0.00000000	    -22.90637605	    446.47610188	    -25.92221797	      0.88474830	     -0.00200000	     -0.14243968	      0.00000000	      1.86492164	      0.00000000
      0.77100000	      0.00000000	      0.00000000	      0.00000000	      0.00000000	      0.00000000	      0.00000000	      0.00000000	      0.00000000	      0.00000000	    -22.50151709	    444.55489516	    -25.77486634	      0.88532944	     -0.00200000	     -0.14229767	      0.00000000	      1.86115612	      0.00000000
      0.77200000	      0.00000000	      0.00000000	      0.00000000	      0.00000000	      0.00000000	      0.00000000	      0.00000000	      0.00000000	      0.00000000	    -22.10489661	    442.68706441	    -25.63336641	      0.88591160	     -0.00200000	     -0.14215619	      0.00000000	      1.85705104	      0.00000000
      0.77300000	      0.00000000	      0.00000000	      0.00000000	      0.00000000	      0.00000000	      0.00000000	      0.00000000	      0.00000000	      0.00000000	    -21.71822824	    440.88591635	    -25.49930066	      0.88649475	     -0.00200000	     -0.14201538	      0.00000000	      1.85252205	      0.00000000
      0.77400000	      0.00000000	      0.00000000	      0.00000000	      0.00000000	      0.00000000	      0.00000000	      0.00000000	      0.00000000	      0.00000000	    -21.33923769	    439.13808465	    -25.37126541	      0.88707842	     -0.00200000	     -0.14187517	      0.00000000	      1.84765371	      0.00000000
      0.77500000	      0.00000000	      0.00000000	      0.00000000	      0.00000000	      0.00000000	      0.00000000	      0.00000000	      0.00000000	      0.00000000	    -20.96949145	    437.45677173	    -25.25085546	      0.88766245	     -0.00200000	     -0.14173573	      0.00000000	      1.84236098	      0.00000000
      0.77600000	      0.00000000	      0.00000000	      0.00000000	      0.00000000	      0.00000000	      0.00000000	      0.00000000	      0.00000000	      0.00000000	    -20.60685679	    435.82856655	    -25.13660565	      0.88824650	     -0.00200000	     -0.14159695	      0.00000000	      1.83673108	      0.00000000
      0.77700000	      0.00000000	      0.00000000	      0.00000000	      0.00000000	      0.00000000	      0.00000000	      0.00000000	      0.00000000	      0.00000000	    -20.25275119	    434.26662683	    -25.03011748	      0.88883023	     -0.00200000	     -0.14145903	      0.00000000	      1.83068138	      0.00000000
      0.77800000	      0.00000000	      0.00000000	      0.00000000	      0.00000000	      0.00000000	      0.00000000	      0.00000000	      0.00000000	      0.00000000	    -19.90517788	    432.75755644	    -24.92987439	      0.88941341	     -0.00200000	     -0.14132183	      0.00000000	      1.82429894	      0.00000000
      0.77900000	      0.00000000	      0.00000000	      0.00000000	      0.00000000	      0.00000000	      0.00000000	      0.00000000	      0.00000000	      0.00000000	    -19.56539787	    431.31439388	    -24.83745776	      0.88999555	     -0.00200000	     -0.14118558	      0.00000000	      1.81750458	      0.00000000
      0.78000000	      0.00000000	      0.00000000	      0.00000000	      0.00000000	      0.00000000	      0.00000000	      0.00000000	      0.00000000	      0.00000000	    -19.23155226	    429.92380261	    -24.75131080	      0.89057654	     -0.00200000	     -0.14105012	      0.00000000	      1.81038229	      0.00000000
      0.78100000	      0.00000000	      0.00000000	      0.00000000	      0.00000000	      0.00000000	      0.00000000	      0.00000000	      0.00000000	      0.00000000	    -18.90475210	    428.59867215	    -24.67298694	      0.89115575	     -0.00200000	     -0.14091570	      0.00000000	      1.80285019	      0.00000000
      0.78200000	      0.00000000	      0.00000000	      0.00000000	      0.00000000	      0.00000000	      0.00000000	      0.00000000	      0.00000000	      0.00000000	    -18.58328655	    427.32566595	    -24.60090145	      0.89173326	     -0.00200000	     -0.14078215	      0.00000000	      1.79498740	      0.00000000
      0.78300000	      0.00000000	      0.00000000	      0.00000000	      0.00000000	      0.00000000	      0.00000000	      0.00000000	      0.00000000	      0.00000000	    -18.26811209	    426.11750960	    -24.53657426	      0.89230828	     -0.00200000	     -0.14064973	      0.00000000	      1.78670683	      0.00000000
      0.78400000	      0.00000000	      0.00000000	      0.00000000	      0.00000000	      0.00000000	      0.00000000	      0.00000000	      0.00000000	      0.00000000	    -17.95767620	    424.96094108	    -24.47842509	      0.89288107	     -0.00200000	     -0.14051825	      0.00000000	      1.77808596	     -0.00000000
      0.78500000	      0.00000000	      0.00000000	      0.00000000	      0.00000000	      0.00000000	      0.00000000	      0.00000000	      0.00000000	      0.00000000	    -17.65279938	    423.86850715	    -24.42795150	      0.89345077	     -0.00200000	     -0.14038798	      0.00000000	      1.76903316	     -0.00000000
      0.78600000	      0.00000000	      0.00000000	      0.00000000	      0.00000000	      0.00000000	      0.00000000	      0.00000000	      0.00000000	      0.00000000	    -17.35208184	    422.82703519	    -24.38357770	      0.89401775	     -0.00200000	     -0.14025872	      0.00000000	      1.75962895	      0.00000000
      0.78700000	      0.00000000	      0.00000000	      0.00000000	      0.00000000	      0.00000000	      0.00000000	      0.00000000	      0.00000000	      0.00000000	    -17.05622207	    421.84899747	    -24.34676439	      0.89458100	     -0.00200000	     -0.14013081	      0.00000000	      1.74977979	      0.00000000
      0.78800000	      0.00000000	      0.00000000	      0.00000000	      0.00000000	      0.00000000	      0.00000000	      0.00000000	      0.00000000	      0.00000000	    -16.76398702	    420.92141509	    -24.31593910	      0.89514102	     -0.00200000	     -0.14000404	      0.00000000	      1.73956992	      0.00000000
      0.78900000	      0.00000000	      0.00000000	      0.00000000	      0.00000000	      0.00000000	      0.00000000	      0.00000000	      0.00000000	      0.00000000	    -16.47596899	    420.05661130	    -24.29251224	      0.89569670	     -0.00200000	     -0.13987885	      0.00000000	      1.72890044	     -0.00000000
      0.79000000	      0.00000000	      0.00000000	      0.00000000	      0.00000000	      0.00000000	      0.00000000	      0.00000000	      0.00000000	      0.00000000	    -16.19108953	    419.24178600	    -24.27492142	      0.89624868	     -0.00200000	     -0.13975503	      0.00000000	      1.71785794	      0.00000000
      0.79100000	      0.00000000	      0.00000000	      0.00000000	      0.00000000	      0.00000000	      0.00000000	      0.00000000	      0.00000000	      0.00000000	    -15.90986177	    418.48917305	    -24.26451109	      0.89679576	     -0.00200000	     -0.13963308	      0.00000000	      1.70633992	      0.00000000
      0.79200000	      0.00000000	      0.00000000	      0.00000000	      0.00000000	      0.00000000	      0.00000000	      0.00000000	      0.00000000	      0.00000000	    -15.63136466	    417.78606176	    -24.25975129	      0.89733875	     -0.00200000	     -0.13951277	      0.00000000	      1.69443366	      0.00000000
      0.79300000	      0.00000000	      0.00000000	      0.00000000	      0.00000000	      0.00000000	      0.00000000	      0.00000000	      0.00000000	      0.00000000	    -15.35607316	    417.14447737	    -24.26191829	      0.89787642	     -0.00200000	     -0.13939467	      0.00000000	      1.68203550	      0.00000000
      0.79400000	      0.00000000	      0.00000000	      0.00000000	      0.00000000	      0.00000000	      0.00000000	      0.00000000	      0.00000000	      0.00000000	    -15.08320030	    416.55179858	    -24.26951006	      0.89840966	     -0.00200000	     -0.13927845	      0.00000000	      1.66923890	      0.00000000
      0.79500000	      0.00000000	      0.00000000	      0.00000000	      0.00000000	      0.00000000	      0.00000000	      0.00000000	      0.00000000	      0.00000000	    -14.81320104	    416.01987183	    -24.28372018	      0.89893722	     -0.00200000	     -0.13916475	      0.00000000	      1.65594071	      0.00000000
      0.79600000	      0.00000000	      0.00000000	      0.00000000	      0.00000000	      0.00000000	      0.00000000	      0.00000000	      0.00000000	      0.00000000	    -14.54540342	    415.53625464	    -24.30306897	      0.89946009	     -0.00200000	     -0.13905318	      0.00000000	      1.64224221	     -0.00000000
      0.79700000	      0.00000000	      0.00000000	      0.00000000	      0.00000000	      0.00000000	      0.00000000	      0.00000000	      0.00000000	      0.00000000	    -14.28026846	    415.11265934	    -24.32861924	      0.89997693	     -0.00200000	     -0.13894445	      0.00000000	      1.62804940	     -0.00000000
      0.79800000	      0.00000000	      0.00000000	      0.00000000	      0.00000000	      0.00000000	      0.00000000	      0.00000000	      0.00000000	      0.00000000	    -14.01721034	    414.73674774	    -24.35891926	      0.90048885	     -0.00200000	     -0.13883810	      0.00000000	      1.61346976	      0.00000000
      0.79900000	      0.00000000	      0.00000000	      0.00000000	      0.00000000	      0.00000000	      0.00000000	      0.00000000	      0.00000000	      0.00000000	    -13.75670545	    414.42012787	    -24.39484857	      0.90099448	     -0.00200000	     -0.13873491	      0.00000000	      1.59842314	     -0.00000000
      0.80000000	      0.00000000	      0.00000000	      0.00000000	      0.00000000	      0.00000000	      0.00000000	      0.00000000	      0.00000000	      0.00000000	    -13.49822339	    414.15065527	    -24.43500236	      0.90149499	     -0.00200000	     -0.13863435	      0.00000000	      1.58302249	     -0.00000000
      0.80100000	      0.00000000	      0.00000000	      0.00000000	      0.00000000	      0.00000000	      0.00000000	      0.00000000	      0.00000000	      0.00000000	    -13.24225869	    413.93980384	    -24.48004894	      0.90198898	     -0.00200000	     -0.13853723	      0.00000000	      1.56721162	     -0.00000000
